<svg width="40" height="40" viewBox="0 0 40 40" fill="none" xmlns="http://www.w3.org/2000/svg">
<path d="M35.987 12.1673C35.987 11.1832 35.904 10.2032 35.669 9.24516C35.247 7.50011 34.2521 6.16707 32.7631 5.18804C31.9971 4.68802 31.1542 4.38101 30.2582 4.21901C29.5701 4.09862 28.8737 4.03242 28.1752 4.021C28.1232 4.016 28.0662 4.005 28.0083 4H11.9778C11.7748 4.016 11.5718 4.026 11.3688 4.036C10.3738 4.093 9.38483 4.19701 8.44686 4.57202C6.66592 5.27504 5.37896 6.50408 4.62898 8.27513C4.36899 8.87415 4.23799 9.50917 4.145 10.1552C4.067 10.6762 4.025 11.2022 4.01 11.7282C4.01 11.7702 4 11.8112 4 11.8532V28.1508L4.031 28.7138C4.099 29.8028 4.23899 30.8808 4.69798 31.8809C5.56295 33.7719 7.01591 35.016 9.01084 35.615C9.56783 35.787 10.1518 35.865 10.7348 35.917C11.4748 35.99 12.2137 36 12.9537 36H27.6613C28.3592 36 29.0572 35.953 29.7552 35.865C30.8542 35.724 31.8851 35.401 32.8181 34.787C33.9224 34.0715 34.7932 33.0484 35.323 31.8439C35.573 31.2809 35.714 30.6828 35.818 30.0778C35.969 29.1768 36 28.2648 36 27.3537C35.995 22.2906 36 17.2284 35.995 12.1653L35.987 12.1673ZM27.4243 17.4844V25.0997C27.4243 25.6567 27.3463 26.2037 27.0963 26.7087C26.7113 27.4947 26.0863 27.9897 25.2473 28.2298C24.7826 28.363 24.3035 28.4398 23.8204 28.4588C23.2129 28.4947 22.6134 28.3059 22.136 27.9285C21.6586 27.551 21.3367 27.0111 21.2315 26.4117C21.1351 25.8724 21.2184 25.3163 21.4686 24.8289C21.7188 24.3415 22.122 23.9497 22.6164 23.7136C23.0434 23.5056 23.5074 23.3806 23.9704 23.2866C24.4754 23.1776 24.9803 23.0786 25.4803 22.9636C25.8503 22.8806 26.0893 22.6566 26.1623 22.2756C26.1833 22.1926 26.1883 22.1036 26.1883 22.0206V14.7603C26.1865 14.6775 26.1744 14.5952 26.1523 14.5153C26.1003 14.3123 25.9543 14.1923 25.7463 14.2023C25.5323 14.2123 25.3243 14.2493 25.1163 14.2913C24.1004 14.4893 23.0854 14.6923 22.0744 14.9003L17.1426 15.8954C17.1216 15.9004 17.0956 15.9114 17.0746 15.9114C16.7046 16.0154 16.5746 16.1824 16.5586 16.5674C16.5536 16.6244 16.5586 16.6824 16.5586 16.7394C16.5536 20.2085 16.5586 23.6776 16.5536 27.1457C16.5536 27.7087 16.4906 28.2608 16.2676 28.7808C15.8976 29.6348 15.2416 30.1718 14.3567 30.4268C13.8888 30.563 13.4057 30.6399 12.9187 30.6558C11.6428 30.7028 10.5798 29.8538 10.3618 28.5988C10.1738 27.5157 10.6688 26.3487 11.8978 25.8277C12.3767 25.6297 12.8717 25.5207 13.3767 25.4167L14.5227 25.1827C15.0327 25.0737 15.2986 24.7506 15.3246 24.2296V12.1873C15.3246 12.0203 15.3456 11.8542 15.3816 11.6922C15.4756 11.3122 15.7466 11.0932 16.1106 11.0042C16.4496 10.9152 16.7986 10.8532 17.1416 10.7802C18.1206 10.5822 19.0945 10.3842 20.0735 10.1912L23.0994 9.57617C23.9954 9.39917 24.8853 9.21716 25.7813 9.04016C26.0733 8.98316 26.3703 8.92015 26.6663 8.89915C27.0773 8.86315 27.3643 9.12316 27.4063 9.54017C27.4163 9.63918 27.4223 9.73818 27.4223 9.83718V17.4784L27.4243 17.4844Z" fill="white"/>
</svg>
