<svg width="40" height="40" viewBox="0 0 40 40" fill="none" xmlns="http://www.w3.org/2000/svg">
<path d="M23.8839 26.2946L30.7143 13.7054H16.1161L9.28571 26.2946H23.8839ZM40 20C40 22.7083 39.4717 25.2976 38.4152 27.7679C37.3586 30.2381 35.9375 32.3661 34.1518 34.1518C32.3661 35.9375 30.2381 37.3586 27.7679 38.4152C25.2976 39.4717 22.7083 40 20 40C17.2917 40 14.7024 39.4717 12.2321 38.4152C9.76191 37.3586 7.63393 35.9375 5.84821 34.1518C4.0625 32.3661 2.64137 30.2381 1.58482 27.7679C0.528274 25.2976 0 22.7083 0 20C0 17.2917 0.528274 14.7024 1.58482 12.2321C2.64137 9.76191 4.0625 7.63393 5.84821 5.84821C7.63393 4.0625 9.76191 2.64137 12.2321 1.58482C14.7024 0.528274 17.2917 0 20 0C22.7083 0 25.2976 0.528274 27.7679 1.58482C30.2381 2.64137 32.3661 4.0625 34.1518 5.84821C35.9375 7.63393 37.3586 9.76191 38.4152 12.2321C39.4717 14.7024 40 17.2917 40 20Z" fill="white"/>
</svg>
