<svg width="41" height="40" viewBox="0 0 41 40" fill="none" xmlns="http://www.w3.org/2000/svg">
<path d="M1.96 20.3787C1.875 20.3787 1.80375 20.4499 1.79 20.5399L1.4 24.1337L1.79 27.6437C1.80375 27.7349 1.875 27.8074 1.96 27.8074C2.045 27.8074 2.11 27.7362 2.12125 27.6437L2.545 24.1337L2.09625 20.5399C2.09625 20.4499 2.025 20.3787 1.94625 20.3787H1.96ZM0.45 21.7587C0.35125 21.7587 0.3 21.8174 0.27375 21.9137L0 24.1337L0.27375 26.3087C0.27375 26.4074 0.3525 26.4724 0.42375 26.4724C0.5025 26.4724 0.57375 26.3937 0.59875 26.2962L0.95 24.0962L0.59875 21.8762C0.59875 21.7712 0.5275 21.7262 0.45 21.7262V21.7587ZM3.49625 19.6749C3.3975 19.6749 3.3 19.7537 3.3 19.8499L2.95 24.1212L3.32 28.2162C3.32 28.3124 3.39875 28.4174 3.52125 28.4174C3.62625 28.4174 3.6975 28.3124 3.7225 28.2162L4.14625 24.0949L3.7225 19.8437C3.6975 19.7474 3.61875 19.6487 3.52125 19.6487L3.49625 19.6749ZM5.09875 19.4987C4.97375 19.4987 4.87 19.5974 4.84375 19.7274L4.525 24.1224L4.87625 28.3674C4.90125 28.4912 5 28.5937 5.1225 28.5937C5.245 28.5937 5.35125 28.4899 5.37125 28.3474L5.775 24.1224L5.37125 19.7537C5.37175 19.7241 5.36642 19.6948 5.35557 19.6673C5.34472 19.6398 5.32856 19.6147 5.30801 19.5935C5.28746 19.5722 5.26294 19.5553 5.23582 19.5435C5.20871 19.5317 5.17955 19.5254 5.15 19.5249L5.09875 19.4987ZM7.025 20.0987C7.02085 20.031 6.99093 19.9676 6.94141 19.9213C6.89189 19.875 6.82652 19.8495 6.75875 19.8499C6.60875 19.8499 6.4925 19.9487 6.485 20.0987L6.12 24.1474L6.45125 28.4187C6.45125 28.5687 6.58125 28.6849 6.7175 28.6849C6.84125 28.6849 6.96625 28.5687 6.96625 28.4187L7.3425 24.1474L6.96625 20.0724L7.025 20.0987ZM8.37125 17.2537C8.29262 17.2556 8.21773 17.2877 8.16211 17.3433C8.10649 17.3989 8.0744 17.4738 8.0725 17.5524L7.72125 24.1474L8.0325 28.4187C8.0325 28.5687 8.1625 28.6924 8.3325 28.6924C8.48875 28.6924 8.61875 28.5424 8.6325 28.3924L8.9775 24.1224L8.6325 17.5012C8.61875 17.3262 8.4825 17.2012 8.3325 17.2012L8.37125 17.2537ZM9.92875 15.6762C9.75375 15.6762 9.60375 15.8262 9.59 16.0024L9.29 24.1212L9.56375 28.3662C9.56375 28.5674 9.71375 28.7162 9.89 28.7162C10.065 28.7162 10.215 28.5674 10.2412 28.3662L10.5663 24.1212L10.2412 16.0274C10.215 15.8262 10.065 15.6762 9.89625 15.6762H9.92875ZM11.5437 14.9287C11.3425 14.9287 11.1925 15.0787 11.165 15.2737L10.8913 24.0687L11.165 28.2687C11.1913 28.4637 11.3412 28.6474 11.5437 28.6474C11.6422 28.6436 11.7354 28.6022 11.8042 28.5318C11.873 28.4613 11.9122 28.3672 11.9138 28.2687L12.24 24.0687L11.9138 15.2737C11.9106 15.1764 11.8707 15.084 11.802 15.0151C11.7333 14.9461 11.641 14.9059 11.5437 14.9024V14.9287ZM13.6137 14.9737C13.6139 14.9216 13.6038 14.87 13.5839 14.8219C13.5641 14.7737 13.5349 14.73 13.4981 14.6931C13.4612 14.6563 13.4175 14.6271 13.3693 14.6073C13.3212 14.5874 13.2696 14.5773 13.2175 14.5774C13.0163 14.5774 12.8138 14.7537 12.8138 14.9737L12.565 24.0437L12.8138 28.2174C12.8221 28.326 12.8707 28.4276 12.95 28.5023C13.0293 28.5769 13.1336 28.6193 13.2425 28.6212C13.2953 28.6214 13.3477 28.611 13.3965 28.5907C13.4452 28.5704 13.4895 28.5406 13.5266 28.503C13.5637 28.4654 13.593 28.4208 13.6127 28.3718C13.6324 28.3227 13.6421 28.2703 13.6413 28.2174L13.915 24.0437L13.6413 14.9549L13.6137 14.9737ZM14.8637 14.7537C14.7527 14.7565 14.6469 14.8017 14.5681 14.8801C14.4893 14.9584 14.4435 15.0639 14.44 15.1749L14.1862 24.0499L14.44 28.1699C14.44 28.4187 14.635 28.5937 14.8637 28.5937C15.0925 28.5937 15.2875 28.3924 15.2875 28.1449L15.5412 24.0162L15.2612 15.1749C15.2616 15.1159 15.2502 15.0574 15.2278 15.0028C15.2053 14.9482 15.1723 14.8986 15.1306 14.8569C15.0888 14.8152 15.0392 14.7821 14.9846 14.7597C14.93 14.7372 14.8715 14.7259 14.8125 14.7262L14.8637 14.7537ZM16.485 14.9999C16.3598 15.0009 16.2401 15.0515 16.152 15.1405C16.0639 15.2295 16.0147 15.3497 16.015 15.4749L15.84 24.0499L16.0687 28.1699C16.0686 28.2318 16.0808 28.2932 16.1047 28.3503C16.1287 28.4073 16.1639 28.459 16.2082 28.5023C16.2524 28.5455 16.305 28.5795 16.3626 28.602C16.4203 28.6246 16.4819 28.6354 16.5437 28.6337C16.79 28.6337 16.9925 28.4324 17.0125 28.1587L17.2137 24.0887L16.9925 15.5674C16.9737 15.2937 16.7662 15.0924 16.5175 15.0924L16.485 14.9999ZM18.49 13.5149C18.4055 13.4673 18.3101 13.4423 18.2131 13.4423C18.1161 13.4423 18.0208 13.4673 17.9362 13.5149C17.8624 13.5588 17.8008 13.6207 17.7573 13.6948C17.7138 13.7689 17.6898 13.8528 17.6875 13.9387V14.0437L17.5188 24.1224L17.7075 28.2037V28.2174C17.7171 28.3274 17.7603 28.4317 17.8313 28.5162C17.8809 28.5709 17.9412 28.6147 18.0085 28.6451C18.0758 28.6754 18.1487 28.6915 18.2225 28.6924C18.3518 28.6854 18.4742 28.6322 18.5675 28.5424C18.6673 28.4417 18.7231 28.3055 18.7225 28.1637L18.7425 27.7674L18.9375 24.0962L18.7162 13.9524C18.7146 13.8728 18.693 13.7948 18.6535 13.7255C18.614 13.6563 18.5578 13.5981 18.49 13.5562V13.5149ZM20.1638 12.6037C20.1313 12.5712 20.0924 12.5459 20.0495 12.5293C20.0067 12.5127 19.9609 12.5053 19.915 12.5074C19.7909 12.5039 19.6687 12.5374 19.5638 12.6037C19.5039 12.6531 19.4555 12.7149 19.4219 12.7848C19.3882 12.8547 19.3701 12.9311 19.3687 13.0087V13.0537L19.14 24.0687L19.265 26.0937L19.3687 28.0674C19.3748 28.2085 19.435 28.3418 19.5366 28.4398C19.6383 28.5378 19.7738 28.5929 19.915 28.5937C20.215 28.5937 20.4612 28.3399 20.4612 28.0399L20.7162 24.0162L20.4612 12.9549C20.457 12.8615 20.4298 12.7705 20.382 12.6901C20.3343 12.6097 20.2675 12.5422 20.1875 12.4937L20.1638 12.6037ZM35.0787 18.7887C34.4087 18.7887 33.7575 18.9324 33.1838 19.1799C32.989 17.022 31.9938 15.015 30.394 13.5538C28.7942 12.0925 26.7055 11.2827 24.5388 11.2837C23.4375 11.2837 22.3575 11.5099 21.3875 11.8824C21.0088 12.0324 20.9375 12.1824 20.9125 12.4812V28.0924C20.9375 28.3924 21.1588 28.6474 21.4663 28.6724H35.105C35.7474 28.6784 36.3847 28.5567 36.9797 28.3144C37.5747 28.0721 38.1156 27.714 38.5712 27.261C39.0267 26.8079 39.3876 26.2689 39.6331 25.6752C39.8786 25.0815 40.0038 24.4449 40.0012 23.8024C40.0029 23.1578 39.8776 22.5192 39.6324 21.923C39.3872 21.3268 39.027 20.7847 38.5724 20.3278C38.1177 19.8708 37.5775 19.5078 36.9825 19.2596C36.3876 19.0114 35.7496 18.8828 35.105 18.8812L35.0787 18.7887Z" fill="white"/>
</svg>
