<svg width="40" height="40" viewBox="0 0 40 40" fill="none" xmlns="http://www.w3.org/2000/svg">
<path d="M32.65 11.1499C30.9886 10.7846 29.4856 9.90231 28.3568 8.62974C27.2279 7.35717 26.5312 5.7597 26.3667 4.06659V3.33325H20.6167V26.1166C20.6178 27.1275 20.3009 28.1132 19.7107 28.934C19.1206 29.7548 18.2871 30.3691 17.3284 30.6899C16.3697 31.0107 15.3344 31.0217 14.3691 30.7214C13.4038 30.4211 12.5575 29.8246 11.95 29.0166C11.4057 28.3013 11.0725 27.448 10.9879 26.5533C10.9033 25.6585 11.0707 24.7578 11.4713 23.9532C11.8719 23.1487 12.4895 22.4722 13.2545 22.0003C14.0195 21.5285 14.9012 21.2801 15.8 21.2833C16.2971 21.2804 16.7917 21.3535 17.2667 21.4999V15.6666C16.7139 15.5981 16.1568 15.5703 15.6 15.5833C13.5488 15.6381 11.5582 16.2898 9.8718 17.4587C8.18541 18.6276 6.87648 20.2629 6.10529 22.1643C5.3341 24.0658 5.13413 26.1508 5.52986 28.1642C5.92559 30.1775 6.89985 32.0318 8.33333 33.4999C9.80247 34.9936 11.6825 36.0168 13.7345 36.4396C15.7865 36.8623 17.9179 36.6656 19.8578 35.8742C21.7977 35.0829 23.4586 33.7328 24.6294 31.9953C25.8002 30.2579 26.4281 28.2117 26.4333 26.1166V14.4499C28.7524 16.1065 31.5333 16.9927 34.3833 16.9833V11.3166C33.8235 11.3189 33.2649 11.263 32.7167 11.1499H32.65Z" fill="white"/>
</svg>
